# xmcd
# 
# Track frame offsets:
#     150
#     11982
#     21922
#     34801
#     47606
#     65087
#     78973
#     93552
#     109971
#     124669
# 
# Disc length: 1860
# 
# Revision: 0
# Processed by: cddbd v1.5.2PL0 Copyright (c) Steve Scherf et al.
# Submitted via: fre:ac v1.0.17
# 
DISCID=8407420a
DTITLE=Johnny Rodriguez - Greatest Hits - Gusto
DYEAR=2007
DGENRE=Country
TTITLE0=Pass Me By
TTITLE1=Ridin' My Thumb To Mexico
TTITLE2=First Time Burned
TTITLE3=I Don't Like To Talk About Me
TTITLE4=I Don't Know How To Love You
TTITLE5=I'm Not That Good At Goodbye
TTITLE6=Missin' Her is Easier This Way
TTITLE7=I Didn't (Every Chance I Had)
TTITLE8=You Go Your Way (And I'll Go Crazy)
TTITLE9=How Far From the Fire
EXTD=
EXTT0=
EXTT1=
EXTT2=
EXTT3=
EXTT4=
EXTT5=
EXTT6=
EXTT7=
EXTT8=
EXTT9=
PLAYORDER=
